<?xml version="1.0" encoding="UTF-8"?>
<svg width="18px" height="17px" viewBox="0 0 18 17" version="1.1" xmlns="http://www.w3.org/2000/svg" xmlns:xlink="http://www.w3.org/1999/xlink">
    <!-- Generator: sketchtool 59 (101010) - https://sketch.com -->
    <title>E0B80624-9D3E-488C-AEE6-A6F0F823021F_svg</title>
    <desc>Created with sketchtool.</desc>
    <g id="Final" stroke="none" stroke-width="1" fill="none" fill-rule="evenodd">
        <g id="01-01-00-Demo-Center-1440-3" transform="translate(-521.000000, -7239.000000)" fill="#FFBC36">
            <g id="Reviews" transform="translate(0.000000, 6532.000000)">
                <g id="Testimonial" transform="translate(288.000000, 296.000000)">
                    <g id="testimonial" transform="translate(48.000000, 45.000000)">
                        <g id="Group-6" transform="translate(134.000000, 363.000000)">
                            <path d="M48,0 L72,0 L72,24 L48,24 L48,0 Z M48,0 L72,0 L72,24 L48,24 L48,0 Z M60,17.27 L64.15,19.78 C64.91,20.24 65.84,19.56 65.64,18.7 L64.54,13.98 L68.21,10.8 C68.88,10.22 68.52,9.12 67.64,9.05 L62.81,8.64 L60.92,4.18 C60.58,3.37 59.42,3.37 59.08,4.18 L57.19,8.63 L52.36,9.04 C51.48,9.11 51.12,10.21 51.79,10.79 L55.46,13.97 L54.36,18.69 C54.16,19.55 55.09,20.23 55.85,19.77 L60,17.27 L60,17.27 Z" id="Icon/Star-3"></path>
                        </g>
                    </g>
                </g>
            </g>
        </g>
    </g>
</svg>