<?xml version="1.0" standalone="no"?>
<!DOCTYPE svg PUBLIC "-//W3C//DTD SVG 20010904//EN"
 "http://www.w3.org/TR/2001/REC-SVG-20010904/DTD/svg10.dtd">
<svg version="1.0" xmlns="http://www.w3.org/2000/svg"
 width="431.000000pt" height="484.000000pt" viewBox="0 0 431.000000 484.000000"
 preserveAspectRatio="xMidYMid meet">
<metadata>
Created by potrace 1.16, written by Peter Selinger 2001-2019
</metadata>
<g transform="translate(0.000000,484.000000) scale(0.100000,-0.100000)"
fill="#000000" stroke="none">
<path d="M709 4341 c-58 -19 -67 -29 -79 -88 -6 -32 -18 -78 -26 -102 -8 -25
-14 -58 -14 -75 0 -17 -9 -60 -20 -94 -28 -90 -26 -104 21 -147 59 -53 101
-68 194 -68 64 -1 90 4 127 21 60 29 75 47 58 67 -10 13 -9 15 8 15 16 0 22 8
26 33 3 17 8 48 11 67 24 134 15 173 -45 203 -26 14 -30 14 -30 1 0 -9 -4 -13
-10 -9 -5 3 -7 12 -3 20 3 9 1 21 -5 28 -6 6 -13 28 -17 47 -12 65 -35 84
-107 87 -34 1 -75 -1 -89 -6z m91 -41 c8 -15 6 -28 -7 -57 -25 -50 -41 -53
-41 -6 0 39 15 83 29 83 5 0 13 -9 19 -20z m0 -221 c0 -20 -15 -26 -24 -10 -8
13 4 42 15 35 5 -3 9 -14 9 -25z m-52 9 c-3 -7 -11 -13 -18 -13 -7 0 -15 6
-17 13 -3 7 4 12 17 12 13 0 20 -5 18 -12z m102 8 c0 -3 -4 -8 -10 -11 -5 -3
-10 -1 -10 4 0 6 5 11 10 11 6 0 10 -2 10 -4z m17 -211 c8 -23 -2 -28 -27 -15
-18 10 -20 14 -9 21 20 13 29 11 36 -6z m-44 -77 c8 -29 6 -29 -23 -2 -24 23
-24 24 -3 24 13 0 23 -8 26 -22z"/>
<path d="M930 4284 c0 -18 6 -28 20 -31 15 -4 18 -9 10 -18 -7 -9 -6 -16 5
-25 12 -10 15 -10 15 4 0 9 7 19 16 23 13 5 12 9 -8 30 -13 14 -31 29 -40 34
-15 8 -18 5 -18 -17z"/>
<path d="M521 4180 c-15 -36 -20 -55 -12 -58 16 -5 13 -30 -5 -40 -9 -5 -14
-16 -13 -24 4 -13 8 -13 37 -1 31 12 32 15 31 66 -1 28 -4 66 -8 82 -6 30 -7
29 -30 -25z"/>
<path d="M1051 4154 c0 -11 3 -14 6 -6 3 7 2 16 -1 19 -3 4 -6 -2 -5 -13z"/>
<path d="M1774 3452 c-6 -4 -15 -22 -19 -39 -3 -18 -11 -33 -16 -33 -5 0 -9
-7 -9 -15 0 -8 5 -15 10 -15 6 0 10 -20 10 -45 0 -33 4 -45 15 -45 11 0 15 12
15 45 0 33 4 45 15 45 8 0 15 7 15 15 0 8 -7 15 -15 15 -22 0 -18 38 5 50 11
6 20 15 20 20 0 12 -30 13 -46 2z"/>
<path d="M1147 3443 c-4 -3 -7 -46 -7 -95 0 -70 3 -88 14 -88 10 0 16 14 18
43 3 37 6 42 28 42 22 0 25 -5 28 -42 2 -24 8 -43 13 -43 6 0 9 22 7 51 -3 60
-24 82 -58 61 -19 -11 -20 -10 -20 33 0 42 -7 54 -23 38z"/>
<path d="M522 3424 c-34 -24 -25 -55 23 -80 52 -26 53 -49 3 -49 -46 0 -53
-16 -15 -29 21 -8 35 -7 55 5 50 27 39 68 -26 94 -41 18 -38 40 6 41 38 0 52
12 32 24 -22 14 -53 12 -78 -6z"/>
<path d="M855 3431 c-7 -12 12 -24 25 -16 11 7 4 25 -10 25 -5 0 -11 -4 -15
-9z"/>
<path d="M1297 3434 c-8 -8 1 -24 14 -24 5 0 9 7 9 15 0 15 -12 20 -23 9z"/>
<path d="M2411 3363 c-18 -43 -36 -84 -38 -90 -3 -7 2 -13 10 -13 9 0 19 9 22
20 5 16 15 20 52 20 36 0 46 -4 50 -20 3 -11 14 -20 24 -20 18 0 18 2 -1 45
-11 25 -29 65 -40 90 -10 25 -25 45 -33 45 -7 0 -28 -35 -46 -77z m67 -5 c11
-27 10 -28 -18 -28 -17 0 -30 2 -30 4 0 1 5 18 11 35 12 34 18 33 37 -11z"/>
<path d="M930 3395 c0 -8 -4 -15 -10 -15 -5 0 -10 -7 -10 -15 0 -8 5 -15 10
-15 6 0 10 -13 10 -28 0 -36 21 -65 45 -61 26 6 31 29 6 29 -17 0 -21 6 -21
30 0 23 4 30 20 30 11 0 20 7 20 15 0 8 -9 15 -20 15 -11 0 -20 7 -20 15 0 8
-7 15 -15 15 -8 0 -15 -7 -15 -15z"/>
<path d="M3190 3395 c0 -8 -7 -15 -15 -15 -8 0 -15 -7 -15 -15 0 -8 7 -15 15
-15 11 0 15 -11 15 -39 0 -26 5 -41 16 -45 27 -10 44 -7 44 9 0 8 -7 15 -15
15 -10 0 -15 10 -15 30 0 20 5 30 15 30 8 0 15 7 15 15 0 8 -7 15 -15 15 -8 0
-15 7 -15 15 0 8 -7 15 -15 15 -8 0 -15 -7 -15 -15z"/>
<path d="M646 3358 c35 -111 53 -124 77 -56 9 28 17 38 21 28 3 -8 10 -27 15
-42 16 -43 34 -33 58 32 17 46 19 60 8 60 -7 0 -20 -19 -28 -42 l-15 -43 -11
30 c-6 17 -14 36 -16 43 -9 26 -32 10 -45 -30 l-13 -43 -13 30 c-7 17 -13 36
-14 43 0 6 -7 12 -16 12 -11 0 -14 -6 -8 -22z"/>
<path d="M860 3320 c0 -33 4 -60 10 -60 6 0 10 27 10 60 0 33 -4 60 -10 60 -6
0 -10 -27 -10 -60z"/>
<path d="M1042 3364 c-51 -35 -8 -115 54 -100 32 8 26 32 -8 28 -33 -4 -56 22
-37 44 7 9 22 14 36 11 27 -5 42 11 22 24 -21 13 -42 11 -67 -7z"/>
<path d="M1290 3320 c0 -47 3 -60 15 -60 12 0 15 13 15 60 0 47 -3 60 -15 60
-12 0 -15 -13 -15 -60z"/>
<path d="M1360 3319 c0 -45 3 -59 14 -59 11 0 16 14 18 48 3 39 6 47 23 47 17
0 20 -8 23 -47 2 -34 7 -48 18 -48 18 0 20 93 1 108 -7 6 -32 11 -55 10 l-42
0 0 -59z"/>
<path d="M1522 3364 c-52 -36 5 -129 59 -96 19 12 20 11 17 -10 -2 -19 -9 -23
-43 -24 -59 -2 -62 -3 -41 -19 28 -21 72 -19 96 5 16 16 20 33 20 90 0 56 -3
70 -15 70 -8 0 -15 -5 -15 -12 0 -9 -3 -9 -12 0 -16 16 -39 15 -66 -4z m73
-44 c0 -20 -6 -26 -28 -28 -18 -2 -29 2 -33 12 -11 28 4 48 33 44 22 -2 28 -8
28 -28z"/>
<path d="M1830 3320 c0 -46 3 -60 14 -60 10 0 16 14 18 43 2 35 7 43 26 45 12
2 22 10 22 18 0 17 -22 18 -38 2 -9 -9 -12 -9 -12 0 0 7 -7 12 -15 12 -12 0
-15 -13 -15 -60z"/>
<path d="M1940 3360 c-11 -11 -20 -29 -20 -40 0 -27 35 -60 63 -60 36 0 67 27
67 60 0 54 -71 79 -110 40z m80 -25 c17 -20 -3 -45 -37 -45 -13 0 -26 7 -29
15 -10 25 4 45 29 45 14 0 30 -7 37 -15z"/>
<path d="M2080 3318 c0 -44 3 -58 14 -58 11 0 16 14 18 48 3 40 6 47 26 50 20
3 22 0 22 -47 0 -39 4 -51 15 -51 10 0 15 10 15 34 0 47 9 66 30 66 21 0 30
-19 30 -66 0 -19 5 -34 10 -34 15 0 12 97 -2 107 -7 4 -50 8 -95 9 l-83 1 0
-59z"/>
<path d="M2574 3366 c-15 -12 -17 -18 -8 -33 6 -10 21 -20 33 -23 28 -6 23
-25 -6 -25 -12 -1 -25 -4 -29 -7 -10 -11 42 -21 66 -13 31 10 24 57 -9 65 -33
8 -41 32 -10 30 37 -3 45 0 29 10 -21 14 -43 12 -66 -4z"/>
<path d="M2690 3370 c-16 -11 -9 -13 32 -10 42 2 41 -17 -2 -24 -27 -4 -41
-12 -45 -27 -10 -30 9 -43 60 -45 l45 -2 0 49 c0 38 -4 51 -19 59 -24 13 -51
13 -71 0z m70 -58 c0 -14 -23 -32 -42 -32 -18 0 -25 20 -11 33 9 10 53 9 53
-1z"/>
<path d="M2820 3319 c0 -33 4 -59 10 -59 6 0 10 15 10 33 0 41 21 73 44 64 11
-5 16 -19 16 -52 0 -33 4 -45 15 -45 11 0 15 11 15 43 0 59 -11 71 -65 73
l-45 2 0 -59z"/>
<path d="M2983 3373 c-27 -10 -11 -21 22 -16 23 4 35 2 35 -6 0 -6 -9 -11 -21
-11 -31 0 -59 -18 -59 -39 0 -27 20 -39 68 -38 l42 0 0 43 c0 61 -36 88 -87
67z m57 -68 c0 -19 -24 -29 -46 -21 -13 5 -14 9 -4 21 16 20 50 19 50 0z"/>
<path d="M3290 3360 c-11 -11 -20 -29 -20 -40 0 -27 35 -60 63 -60 36 0 67 27
67 60 0 54 -71 79 -110 40z m80 -25 c17 -20 -3 -45 -37 -45 -25 0 -39 20 -29
45 3 8 16 15 29 15 14 0 30 -7 37 -15z"/>
<path d="M3070 3091 c-5 -11 -10 -29 -10 -40 0 -12 -4 -21 -10 -21 -5 0 -10
-7 -10 -15 0 -8 5 -15 10 -15 6 0 10 -20 10 -45 0 -33 4 -45 15 -45 11 0 15
12 15 45 0 33 4 45 15 45 8 0 15 7 15 15 0 8 -7 15 -15 15 -9 0 -15 9 -15 25
0 16 6 25 15 25 8 0 15 7 15 15 0 22 -37 18 -50 -4z"/>
<path d="M990 3055 c0 -43 -1 -45 -21 -35 -49 27 -103 -25 -80 -77 13 -27 52
-39 80 -23 14 7 21 7 21 0 0 -5 5 -10 10 -10 6 0 10 38 10 95 0 57 -4 95 -10
95 -5 0 -10 -20 -10 -45z m-10 -70 c15 -18 -2 -45 -30 -45 -10 0 -23 7 -30 15
-15 18 2 45 30 45 10 0 23 -7 30 -15z"/>
<path d="M1380 3005 c0 -78 3 -95 15 -95 12 0 15 17 15 95 0 78 -3 95 -15 95
-12 0 -15 -17 -15 -95z"/>
<path d="M510 3000 c0 -72 3 -90 15 -90 11 0 15 16 17 68 l3 67 25 -67 c14
-38 30 -68 36 -68 5 0 21 29 33 65 13 36 27 68 32 71 5 3 9 -27 9 -65 0 -41 4
-71 10 -71 6 0 10 37 10 91 0 87 -1 90 -22 87 -16 -2 -28 -17 -43 -55 -11 -28
-23 -55 -27 -58 -3 -3 -16 21 -29 54 -20 50 -28 61 -46 61 -22 0 -23 -3 -23
-90z"/>
<path d="M1050 3075 c0 -8 7 -15 15 -15 8 0 15 7 15 15 0 8 -7 15 -15 15 -8 0
-15 -7 -15 -15z"/>
<path d="M1471 3064 c-25 -20 -31 -34 -31 -64 0 -68 72 -108 144 -80 23 8 26
15 26 55 0 45 0 45 -35 45 -24 0 -35 -5 -35 -15 0 -9 9 -15 21 -15 15 0 20 -5
17 -22 -2 -18 -11 -24 -36 -26 -42 -4 -72 21 -72 58 0 42 31 64 79 56 47 -7
65 9 26 24 -42 16 -71 12 -104 -16z"/>
<path d="M2117 3084 c-8 -8 1 -24 14 -24 5 0 9 7 9 15 0 15 -12 20 -23 9z"/>
<path d="M1950 3045 c0 -8 -7 -15 -15 -15 -8 0 -15 -7 -15 -15 0 -8 7 -15 15
-15 11 0 15 -11 15 -39 0 -26 5 -41 16 -45 27 -10 44 -7 44 9 0 8 -7 15 -15
15 -10 0 -15 10 -15 30 0 20 5 30 15 30 8 0 15 7 15 15 0 8 -7 15 -15 15 -8 0
-15 7 -15 15 0 8 -7 15 -15 15 -8 0 -15 -7 -15 -15z"/>
<path d="M762 3014 c-52 -36 -3 -116 61 -100 40 10 33 26 -9 23 -22 -1 -39 3
-41 11 -3 8 9 12 41 12 39 0 46 3 46 19 0 22 -35 51 -60 51 -9 0 -26 -7 -38
-16z m66 -21 c2 -9 -7 -13 -27 -13 -30 0 -39 9 -24 24 11 10 46 3 51 -11z"/>
<path d="M1050 2970 c0 -47 3 -60 15 -60 12 0 15 13 15 60 0 47 -3 60 -15 60
-12 0 -15 -13 -15 -60z"/>
<path d="M1130 3010 c-11 -11 -20 -29 -20 -40 0 -42 61 -75 97 -52 19 12 1 27
-32 27 -25 0 -30 4 -30 25 0 21 5 25 30 27 17 0 34 2 39 2 5 1 3 8 -4 16 -17
21 -56 19 -80 -5z"/>
<path d="M1250 3020 c-16 -11 -9 -13 32 -10 42 2 41 -17 -2 -24 -27 -4 -41
-12 -45 -27 -10 -30 9 -43 60 -45 l45 -2 0 49 c0 38 -4 51 -19 59 -24 13 -51
13 -71 0z m70 -58 c0 -14 -23 -32 -42 -32 -18 0 -25 20 -11 33 9 10 53 9 53
-1z"/>
<path d="M1662 3014 c-46 -32 -15 -104 45 -104 28 0 63 33 63 60 0 27 -35 60
-63 60 -12 0 -33 -7 -45 -16z m73 -44 c0 -19 -6 -26 -26 -28 -14 -2 -31 4 -39
12 -18 22 5 48 39 44 20 -2 26 -9 26 -28z"/>
<path d="M1810 3020 c-16 -11 -9 -13 32 -10 42 2 41 -17 -2 -24 -27 -4 -41
-12 -45 -27 -10 -30 9 -43 60 -45 l45 -2 0 49 c0 38 -4 51 -19 59 -24 13 -51
13 -71 0z m70 -58 c0 -14 -23 -32 -42 -32 -18 0 -25 20 -11 33 9 10 53 9 53
-1z"/>
<path d="M2110 2970 c0 -47 3 -60 15 -60 12 0 15 13 15 60 0 47 -3 60 -15 60
-12 0 -15 -13 -15 -60z"/>
<path d="M2186 3014 c-9 -8 -16 -19 -16 -23 0 -12 22 -28 44 -32 11 -2 21 -10
24 -18 4 -11 -2 -13 -26 -8 -17 4 -34 2 -37 -3 -8 -12 38 -24 63 -16 42 14 34
61 -10 68 -31 4 -36 30 -7 28 37 -3 45 0 29 10 -22 14 -46 12 -64 -6z"/>
<path d="M2380 3010 c-11 -11 -20 -29 -20 -40 0 -27 35 -60 63 -60 36 0 67 27
67 60 0 54 -71 79 -110 40z m80 -25 c17 -20 -3 -45 -37 -45 -13 0 -26 7 -29
15 -10 25 4 45 29 45 14 0 30 -7 37 -15z"/>
<path d="M2520 2969 c0 -46 3 -59 15 -59 10 0 15 10 15 34 0 47 9 66 30 66 21
0 30 -19 30 -66 0 -19 5 -34 10 -34 15 0 12 96 -2 108 -7 5 -32 10 -55 9 l-43
0 0 -58z"/>
<path d="M2692 3014 c-52 -36 -3 -116 61 -100 40 10 33 26 -9 23 -22 -1 -39 3
-41 11 -3 8 9 12 41 12 39 0 46 3 46 19 0 22 -35 51 -60 51 -9 0 -26 -7 -38
-16z m66 -21 c2 -9 -7 -13 -27 -13 -30 0 -39 9 -24 24 11 10 46 3 51 -11z"/>
<path d="M2912 3014 c-45 -31 -16 -104 43 -104 34 0 65 28 65 60 0 32 -31 60
-65 60 -11 0 -31 -7 -43 -16z m73 -44 c0 -20 -6 -26 -28 -28 -18 -2 -29 2 -33
12 -11 28 4 48 33 44 22 -2 28 -8 28 -28z"/>
<path d="M3230 3010 c-11 -11 -20 -29 -20 -40 0 -27 35 -60 63 -60 36 0 67 27
67 60 0 54 -71 79 -110 40z m80 -25 c17 -20 -3 -45 -37 -45 -25 0 -39 20 -29
45 3 8 16 15 29 15 14 0 30 -7 37 -15z"/>
<path d="M3370 2986 c0 -27 6 -51 16 -60 18 -19 28 -20 55 -6 13 7 19 7 19 0
0 -5 5 -10 10 -10 6 0 10 27 10 60 0 33 -4 60 -10 60 -5 0 -10 -15 -10 -32 0
-42 -12 -61 -36 -56 -14 2 -20 13 -22 46 -2 28 -8 42 -18 42 -10 0 -14 -12
-14 -44z"/>
<path d="M3520 2970 c0 -47 3 -60 15 -60 11 0 15 11 15 41 0 32 4 42 20 46 11
3 20 12 20 19 0 17 -12 18 -28 2 -9 -9 -12 -9 -12 0 0 7 -7 12 -15 12 -12 0
-15 -13 -15 -60z"/>
<path d="M507 2743 c-4 -3 -7 -46 -7 -95 0 -72 3 -88 15 -88 8 0 15 4 15 10 0
6 10 5 25 -2 64 -29 105 45 54 97 -16 17 -23 18 -49 8 l-30 -11 0 44 c0 41 -8
53 -23 37z m93 -108 c15 -18 -2 -45 -30 -45 -10 0 -23 7 -30 15 -15 18 2 45
30 45 10 0 23 -7 30 -15z"/>
<path d="M1200 2706 l0 -44 -29 11 c-25 9 -33 8 -50 -8 -12 -10 -21 -30 -21
-45 0 -47 58 -78 88 -48 9 9 12 9 12 0 0 -7 7 -12 15 -12 12 0 15 17 15 95 0
78 -3 95 -15 95 -11 0 -15 -12 -15 -44z m-5 -86 c0 -19 -6 -26 -26 -28 -14 -2
-31 4 -39 12 -18 22 5 48 39 44 20 -2 26 -9 26 -28z"/>
<path d="M2370 2655 c0 -76 3 -95 14 -95 10 0 16 14 18 42 2 33 8 44 22 46 24
5 36 -14 36 -55 0 -18 5 -33 11 -33 6 0 9 20 7 51 -3 60 -24 82 -58 61 -19
-11 -20 -10 -20 33 0 33 -4 45 -15 45 -12 0 -15 -17 -15 -95z"/>
<path d="M1535 2731 c-7 -12 12 -24 25 -16 11 7 4 25 -10 25 -5 0 -11 -4 -15
-9z"/>
<path d="M1715 2731 c-7 -12 12 -24 25 -16 11 7 4 25 -10 25 -5 0 -11 -4 -15
-9z"/>
<path d="M2520 2725 c0 -8 7 -15 15 -15 8 0 15 7 15 15 0 8 -7 15 -15 15 -8 0
-15 -7 -15 -15z"/>
<path d="M940 2695 c0 -8 -7 -15 -15 -15 -8 0 -15 -7 -15 -15 0 -8 7 -15 15
-15 11 0 15 -11 15 -39 0 -26 5 -41 16 -45 27 -10 44 -7 44 9 0 8 -7 15 -15
15 -10 0 -15 10 -15 30 0 20 5 30 15 30 8 0 15 7 15 15 0 8 -7 15 -15 15 -8 0
-15 7 -15 15 0 8 -7 15 -15 15 -8 0 -15 -7 -15 -15z"/>
<path d="M2280 2695 c0 -8 -4 -15 -10 -15 -5 0 -10 -7 -10 -15 0 -8 5 -15 10
-15 6 0 10 -13 10 -28 0 -36 21 -65 45 -61 26 6 31 29 6 29 -17 0 -21 6 -21
30 0 23 4 30 20 30 11 0 20 7 20 15 0 8 -9 15 -20 15 -11 0 -20 7 -20 15 0 8
-7 15 -15 15 -8 0 -15 -7 -15 -15z"/>
<path d="M680 2660 c-49 -49 7 -120 74 -94 28 11 17 21 -20 20 -22 -1 -39 4
-41 12 -3 8 9 12 41 12 39 0 46 3 46 19 0 48 -64 67 -100 31z m74 -15 c4 -12
-3 -15 -29 -15 -33 0 -43 8 -28 23 12 13 51 7 57 -8z"/>
<path d="M822 2668 c-21 -21 -14 -45 18 -57 40 -13 40 -36 0 -28 -37 8 -50
-10 -15 -19 67 -17 104 45 40 66 -35 12 -39 34 -6 28 10 -2 19 2 20 7 3 15
-42 18 -57 3z"/>
<path d="M1282 2664 c-52 -36 -3 -116 61 -100 40 10 33 26 -9 23 -22 -1 -39 3
-41 11 -3 8 9 12 41 12 39 0 46 3 46 19 0 22 -35 51 -60 51 -9 0 -26 -7 -38
-16z m66 -21 c2 -9 -7 -13 -27 -13 -30 0 -39 9 -24 24 11 10 46 3 51 -11z"/>
<path d="M1425 2655 c-14 -13 -25 -29 -25 -35 0 -18 48 -60 67 -60 25 0 47 16
40 28 -4 5 -17 7 -30 5 -14 -3 -29 2 -36 11 -19 22 4 49 36 43 27 -5 42 11 22
24 -24 15 -49 10 -74 -16z"/>
<path d="M1540 2620 c0 -33 4 -60 10 -60 6 0 10 27 10 60 0 33 -4 60 -10 60
-6 0 -10 -27 -10 -60z"/>
<path d="M1606 2664 c-9 -8 -16 -19 -16 -23 0 -12 22 -28 44 -32 11 -2 21 -10
24 -18 4 -11 -2 -13 -26 -8 -17 4 -34 2 -37 -3 -8 -12 38 -24 63 -16 42 14 34
61 -10 68 -31 4 -36 30 -7 28 37 -3 45 0 29 10 -22 14 -46 12 -64 -6z"/>
<path d="M1720 2620 c0 -33 4 -60 10 -60 6 0 10 27 10 60 0 33 -4 60 -10 60
-6 0 -10 -27 -10 -60z"/>
<path d="M1795 2655 c-14 -13 -25 -29 -25 -35 0 -19 48 -60 70 -60 31 0 70 43
63 69 -6 25 -40 51 -66 51 -10 0 -29 -11 -42 -25z m75 -20 c15 -18 -2 -45 -30
-45 -10 0 -23 7 -30 15 -15 18 2 45 30 45 10 0 23 -7 30 -15z"/>
<path d="M1940 2619 c0 -33 4 -59 10 -59 6 0 10 15 10 33 0 41 21 73 44 64 11
-5 16 -19 16 -52 0 -33 4 -45 15 -45 11 0 15 11 15 43 0 59 -11 71 -65 73
l-45 2 0 -59z"/>
<path d="M2092 2668 c-22 -22 -14 -48 18 -54 17 -4 30 -13 30 -21 0 -12 -7
-14 -31 -9 -22 4 -29 2 -27 -7 6 -16 42 -21 67 -7 31 16 26 46 -9 59 -36 12
-41 36 -6 27 28 -7 45 9 20 18 -25 9 -49 7 -62 -6z"/>
<path d="M2520 2620 c0 -47 3 -60 15 -60 12 0 15 13 15 60 0 47 -3 60 -15 60
-12 0 -15 -13 -15 -60z"/>
<path d="M2594 2666 c-15 -12 -17 -18 -8 -33 6 -10 21 -20 33 -23 28 -6 23
-25 -6 -25 -12 -1 -25 -4 -29 -7 -10 -11 42 -21 66 -13 31 10 24 57 -9 65 -33
8 -41 32 -10 30 37 -3 45 0 29 10 -21 14 -43 12 -66 -4z"/>
<path d="M2770 2655 c5 -14 17 -39 25 -56 19 -36 11 -69 -16 -69 -10 0 -19 -7
-19 -15 0 -16 27 -20 47 -7 6 4 28 44 47 90 26 61 32 82 21 82 -8 0 -22 -19
-32 -42 l-19 -41 -18 41 c-21 46 -53 61 -36 17z"/>
<path d="M2938 2669 c-10 -5 -22 -19 -28 -29 -21 -39 29 -88 76 -76 37 10 29
25 -10 19 -25 -4 -35 -1 -39 11 -5 13 2 16 44 16 48 0 50 1 44 23 -13 42 -51
58 -87 36z m60 -26 c2 -9 -8 -13 -32 -13 -28 0 -34 3 -29 16 7 18 54 16 61 -3z"/>
<path d="M3073 2673 c-27 -10 -11 -21 22 -16 23 4 35 2 35 -6 0 -6 -9 -11 -21
-11 -31 0 -59 -18 -59 -39 0 -27 20 -39 68 -38 l42 0 0 43 c0 61 -36 88 -87
67z m57 -68 c0 -19 -24 -29 -46 -21 -13 5 -14 9 -4 21 16 20 50 19 50 0z"/>
<path d="M3190 2620 c0 -46 3 -60 14 -60 10 0 16 14 18 43 2 35 7 43 26 45 12
2 22 10 22 18 0 17 -22 18 -38 2 -9 -9 -12 -9 -12 0 0 7 -7 12 -15 12 -12 0
-15 -13 -15 -60z"/>
<path d="M3275 2581 c-7 -12 12 -24 25 -16 11 7 4 25 -10 25 -5 0 -11 -4 -15
-9z"/>
<path d="M2720 2305 c0 -78 3 -95 15 -95 12 0 15 17 15 95 0 78 -3 95 -15 95
-12 0 -15 -17 -15 -95z"/>
<path d="M510 2300 c0 -72 3 -90 15 -90 11 0 15 16 17 67 l3 67 44 -67 c28
-43 50 -67 62 -67 17 0 19 9 19 90 0 72 -3 90 -15 90 -11 0 -15 -16 -17 -67
l-3 -67 -44 67 c-28 43 -50 67 -62 67 -17 0 -19 -9 -19 -90z"/>
<path d="M2785 2381 c-7 -12 12 -24 25 -16 11 7 4 25 -10 25 -5 0 -11 -4 -15
-9z"/>
<path d="M3348 2334 c-49 -72 -49 -84 2 -84 33 0 40 -3 40 -20 0 -11 7 -20 15
-20 8 0 15 9 15 20 0 11 5 20 10 20 6 0 10 7 10 15 0 8 -4 15 -10 15 -5 0 -10
25 -10 55 0 74 -22 73 -72 -1z m42 -24 c0 -26 -4 -30 -26 -30 l-25 0 21 30
c12 17 23 30 26 30 2 0 4 -13 4 -30z"/>
<path d="M725 2305 c-14 -13 -25 -29 -25 -35 0 -19 48 -60 70 -60 31 0 70 43
63 69 -6 25 -40 51 -66 51 -10 0 -29 -11 -42 -25z m75 -20 c15 -18 -2 -45 -30
-45 -10 0 -23 7 -30 15 -15 18 2 45 30 45 10 0 23 -7 30 -15z"/>
<path d="M850 2326 c0 -21 46 -116 56 -116 7 0 19 19 27 43 10 27 17 37 21 27
3 -8 10 -27 15 -42 17 -45 37 -34 59 32 16 47 18 60 7 60 -7 0 -20 -19 -28
-42 l-14 -43 -13 43 c-9 28 -19 42 -30 42 -11 0 -21 -14 -30 -42 l-13 -43 -14
43 c-8 23 -21 42 -29 42 -8 0 -14 -2 -14 -4z"/>
<path d="M1196 2308 c35 -111 53 -124 77 -56 9 28 17 38 21 28 3 -8 10 -27 15
-42 16 -43 34 -33 58 32 17 46 19 60 8 60 -7 0 -20 -19 -28 -42 l-15 -43 -11
30 c-6 17 -14 36 -16 43 -9 26 -32 10 -45 -30 l-13 -43 -13 30 c-7 17 -13 36
-14 43 0 6 -7 12 -16 12 -11 0 -14 -6 -8 -22z"/>
<path d="M1422 2314 c-52 -36 -3 -116 61 -100 40 10 33 26 -9 23 -22 -1 -39 3
-41 11 -3 8 9 12 41 12 38 0 46 3 46 18 0 24 -31 52 -56 52 -11 0 -30 -7 -42
-16z m66 -21 c2 -9 -7 -13 -27 -13 -30 0 -39 9 -24 24 11 10 46 3 51 -11z"/>
<path d="M1640 2310 c-11 -11 -20 -29 -20 -40 0 -42 61 -75 97 -52 19 12 1 27
-32 27 -25 0 -30 4 -30 25 0 21 5 25 30 27 17 0 34 2 39 2 5 1 3 8 -4 16 -17
21 -56 19 -80 -5z"/>
<path d="M1760 2320 c-16 -11 -9 -13 32 -10 42 2 41 -17 -2 -24 -27 -4 -41
-12 -45 -27 -10 -30 9 -43 60 -45 l45 -2 0 49 c0 38 -4 51 -19 59 -24 13 -51
13 -71 0z m70 -58 c0 -14 -23 -32 -42 -32 -18 0 -25 20 -11 33 9 10 53 9 53
-1z"/>
<path d="M1890 2269 c0 -33 4 -59 10 -59 6 0 10 15 10 33 0 41 21 73 44 64 11
-5 16 -19 16 -52 0 -33 4 -45 15 -45 11 0 15 11 15 43 0 59 -11 71 -65 73
l-45 2 0 -59z"/>
<path d="M2122 2318 c-21 -21 -14 -45 18 -57 40 -13 40 -36 0 -28 -37 8 -50
-10 -15 -19 67 -17 104 45 40 66 -35 12 -39 34 -6 28 10 -2 19 2 20 7 3 15
-42 18 -57 3z"/>
<path d="M2243 2323 c-27 -10 -11 -21 22 -16 23 4 35 2 35 -6 0 -6 -9 -11 -21
-11 -31 0 -59 -18 -59 -39 0 -27 20 -39 68 -38 l42 0 0 43 c0 61 -36 88 -87
67z m57 -68 c0 -19 -24 -29 -46 -21 -13 5 -14 9 -4 21 16 20 50 19 50 0z"/>
<path d="M2350 2325 c0 -20 52 -115 63 -115 12 0 57 87 57 111 0 24 -23 4 -40
-33 l-18 -43 -18 43 c-9 23 -23 42 -31 42 -7 0 -13 -2 -13 -5z"/>
<path d="M2512 2314 c-52 -36 -3 -116 61 -100 40 10 33 26 -9 23 -22 -1 -39 3
-41 11 -3 8 9 12 41 12 38 0 46 3 46 18 0 24 -31 52 -56 52 -11 0 -30 -7 -42
-16z m66 -21 c2 -9 -7 -13 -27 -13 -30 0 -39 9 -24 24 11 10 46 3 51 -11z"/>
<path d="M2790 2270 c0 -33 4 -60 10 -60 6 0 10 27 10 60 0 33 -4 60 -10 60
-6 0 -10 -27 -10 -60z"/>
<path d="M2840 2325 c0 -20 52 -115 63 -115 12 0 57 87 57 111 0 24 -23 4 -40
-33 l-18 -43 -18 43 c-9 23 -23 42 -31 42 -7 0 -13 -2 -13 -5z"/>
<path d="M3002 2314 c-52 -36 -3 -116 61 -100 40 10 33 26 -9 23 -22 -1 -39 3
-41 11 -3 8 9 12 41 12 38 0 46 3 46 18 0 24 -31 52 -56 52 -11 0 -30 -7 -42
-16z m66 -21 c2 -9 -7 -13 -27 -13 -30 0 -39 9 -24 24 11 10 46 3 51 -11z"/>
<path d="M3142 2318 c-21 -21 -14 -45 18 -57 40 -13 40 -36 0 -28 -37 8 -50
-10 -15 -19 67 -17 104 45 40 66 -35 12 -39 34 -6 28 10 -2 19 2 20 7 3 15
-42 18 -57 3z"/>
<path d="M3470 2321 c0 -5 7 -14 15 -21 20 -17 19 -27 -6 -58 -14 -19 -17 -28
-8 -31 7 -2 21 7 32 20 l19 24 18 -23 c10 -12 26 -22 35 -22 14 0 12 6 -9 32
l-25 32 20 28 c23 32 8 39 -24 11 -18 -17 -19 -17 -28 0 -10 18 -39 24 -39 8z"/>
<path d="M1060 2247 c0 -1 -4 -17 -9 -35 -14 -46 12 -43 26 3 9 29 9 35 -3 35
-8 0 -14 -1 -14 -3z"/>
<path d="M532 2048 c-7 -7 -12 -25 -12 -40 0 -18 -5 -28 -15 -28 -8 0 -15 -7
-15 -15 0 -8 7 -15 15 -15 11 0 15 -12 15 -45 0 -25 5 -45 10 -45 6 0 10 20
10 45 0 33 4 45 15 45 8 0 15 7 15 15 0 8 -7 15 -15 15 -23 0 -19 41 5 47 11
3 20 12 20 19 0 17 -32 18 -48 2z"/>
<path d="M2552 2048 c-7 -7 -12 -25 -12 -40 0 -18 -5 -28 -15 -28 -8 0 -15 -7
-15 -15 0 -8 7 -15 15 -15 11 0 15 -12 15 -45 0 -25 5 -45 10 -45 6 0 10 20
10 45 0 33 4 45 15 45 8 0 15 7 15 15 0 8 -7 15 -15 15 -23 0 -19 41 5 47 11
3 20 12 20 19 0 17 -32 18 -48 2z"/>
<path d="M1370 1955 c0 -57 4 -95 10 -95 6 0 10 13 10 28 0 37 22 67 44 59 11
-4 16 -19 16 -47 0 -29 4 -40 15 -40 11 0 15 12 15 44 0 56 -21 80 -61 71 -28
-6 -29 -6 -29 34 0 23 -4 41 -10 41 -6 0 -10 -38 -10 -95z"/>
<path d="M2790 1956 c0 -77 3 -96 14 -96 10 0 16 14 18 43 2 34 7 42 23 42 16
0 21 -8 23 -42 2 -30 8 -43 18 -43 12 0 14 11 12 51 -3 60 -24 82 -57 62 -18
-12 -20 -9 -23 29 -2 23 -9 43 -15 46 -10 3 -13 -20 -13 -92z"/>
<path d="M860 1995 c0 -8 -7 -15 -15 -15 -8 0 -15 -7 -15 -15 0 -8 6 -15 14
-15 10 0 16 -14 18 -42 3 -39 6 -43 31 -46 32 -4 39 23 7 31 -14 3 -20 14 -20
31 0 19 5 26 20 26 11 0 20 7 20 15 0 8 -9 15 -20 15 -11 0 -20 7 -20 15 0 8
-4 15 -10 15 -5 0 -10 -7 -10 -15z"/>
<path d="M1280 1995 c0 -8 -7 -15 -15 -15 -8 0 -15 -7 -15 -15 0 -8 7 -15 15
-15 11 0 15 -11 15 -39 0 -26 5 -41 16 -45 27 -10 44 -7 44 9 0 8 -7 15 -15
15 -10 0 -15 10 -15 30 0 20 5 30 15 30 8 0 15 7 15 15 0 8 -7 15 -15 15 -8 0
-15 7 -15 15 0 8 -7 15 -15 15 -8 0 -15 -7 -15 -15z"/>
<path d="M2700 1995 c0 -8 -4 -15 -10 -15 -5 0 -10 -7 -10 -15 0 -8 5 -15 10
-15 6 0 10 -15 10 -33 0 -18 5 -38 12 -45 17 -17 48 -15 48 3 0 8 -7 15 -15
15 -10 0 -15 10 -15 30 0 20 5 30 15 30 8 0 15 7 15 15 0 8 -7 15 -15 15 -8 0
-15 7 -15 15 0 8 -7 15 -15 15 -8 0 -15 -7 -15 -15z"/>
<path d="M613 1973 c-27 -10 -11 -21 22 -16 23 4 35 2 35 -6 0 -6 -9 -11 -21
-11 -31 0 -59 -18 -59 -39 0 -27 20 -39 68 -38 l42 0 0 43 c0 61 -36 88 -87
67z m57 -68 c0 -19 -24 -29 -46 -21 -13 5 -14 9 -4 21 16 20 50 19 50 0z"/>
<path d="M742 1968 c-21 -21 -14 -45 18 -57 40 -13 40 -36 0 -28 -37 8 -50
-10 -15 -19 67 -17 104 45 40 66 -35 12 -39 34 -6 28 10 -2 19 2 20 7 3 15
-42 18 -57 3z"/>
<path d="M962 1964 c-52 -36 -3 -116 61 -100 40 10 33 26 -9 23 -22 -1 -39 3
-41 11 -3 8 9 12 41 12 38 0 46 3 46 18 0 24 -31 52 -56 52 -11 0 -30 -7 -42
-16z m66 -21 c2 -9 -7 -13 -27 -13 -30 0 -39 9 -24 24 11 10 46 3 51 -11z"/>
<path d="M1090 1920 c0 -46 3 -60 14 -60 10 0 16 14 18 43 2 35 7 43 26 45 12
2 22 10 22 18 0 17 -22 18 -38 2 -9 -9 -12 -9 -12 0 0 7 -7 12 -15 12 -12 0
-15 -13 -15 -60z"/>
<path d="M1533 1973 c-27 -10 -11 -21 22 -16 23 4 35 2 35 -6 0 -6 -9 -11 -21
-11 -31 0 -59 -18 -59 -39 0 -27 20 -39 68 -38 l42 0 0 43 c0 61 -36 88 -87
67z m57 -68 c0 -19 -24 -29 -46 -21 -13 5 -14 9 -4 21 16 20 50 19 50 0z"/>
<path d="M1650 1919 c0 -45 3 -59 14 -59 11 0 16 14 18 47 2 37 7 49 22 51 24
5 36 -14 36 -60 0 -21 5 -38 10 -38 15 0 12 96 -2 108 -7 5 -32 10 -55 9 l-43
0 0 -58z"/>
<path d="M1893 1973 c-27 -10 -11 -21 22 -16 23 4 35 2 35 -6 0 -6 -9 -11 -21
-11 -31 0 -59 -18 -59 -39 0 -27 20 -39 68 -38 l42 0 0 43 c0 61 -36 88 -87
67z m57 -68 c0 -19 -24 -29 -46 -21 -13 5 -14 9 -4 21 16 20 50 19 50 0z"/>
<path d="M2010 1919 c0 -45 3 -59 14 -59 11 0 16 14 18 47 2 37 7 49 22 51 24
5 36 -14 36 -60 0 -21 5 -38 10 -38 15 0 12 96 -2 108 -7 5 -32 10 -55 9 l-43
0 0 -58z"/>
<path d="M2150 1970 c0 -6 9 -28 20 -50 11 -22 20 -49 20 -61 0 -12 -8 -23
-20 -26 -25 -7 -26 -33 -1 -33 25 0 36 15 71 100 35 85 34 80 15 80 -8 0 -19
-17 -26 -40 -7 -22 -15 -40 -19 -40 -4 0 -13 18 -20 40 -12 36 -40 57 -40 30z"/>
<path d="M2380 1960 c-11 -11 -20 -29 -20 -40 0 -27 35 -60 63 -60 36 0 67 27
67 60 0 54 -71 79 -110 40z m80 -25 c17 -20 -3 -45 -37 -45 -13 0 -26 7 -29
15 -10 25 4 45 29 45 14 0 30 -7 37 -15z"/>
<path d="M2950 1960 c-49 -49 7 -120 74 -94 28 11 17 21 -20 20 -22 -1 -39 4
-41 12 -3 8 9 12 41 12 39 0 46 3 46 19 0 48 -64 67 -100 31z m74 -15 c4 -12
-3 -15 -29 -15 -33 0 -43 8 -28 23 12 13 51 7 57 -8z"/>
<path d="M640 1605 c0 -78 3 -95 15 -95 12 0 15 17 15 95 0 78 -3 95 -15 95
-12 0 -15 -17 -15 -95z"/>
<path d="M3270 1655 c0 -43 -1 -44 -20 -33 -17 11 -25 10 -48 -2 -21 -12 -27
-23 -27 -50 0 -27 6 -38 27 -50 23 -12 31 -13 48 -2 12 7 20 8 20 2 0 -5 7
-10 15 -10 12 0 15 17 15 95 0 78 -3 95 -15 95 -11 0 -15 -12 -15 -45z m-5
-85 c0 -20 -6 -26 -28 -28 -29 -4 -44 16 -33 44 4 10 15 14 33 12 22 -2 28 -8
28 -28z"/>
<path d="M1445 1681 c-7 -12 12 -24 25 -16 11 7 4 25 -10 25 -5 0 -11 -4 -15
-9z"/>
<path d="M2340 1655 c0 -19 5 -35 10 -35 6 0 10 16 10 35 0 19 -4 35 -10 35
-5 0 -10 -16 -10 -35z"/>
<path d="M2967 1684 c-8 -8 1 -24 14 -24 5 0 9 7 9 15 0 15 -12 20 -23 9z"/>
<path d="M720 1645 c0 -8 -4 -15 -10 -15 -5 0 -10 -7 -10 -15 0 -8 5 -15 10
-15 6 0 10 -15 10 -33 0 -18 5 -38 12 -45 17 -17 48 -15 48 3 0 8 -7 15 -15
15 -10 0 -15 10 -15 30 0 20 5 30 15 30 8 0 15 7 15 15 0 8 -7 15 -15 15 -8 0
-15 7 -15 15 0 8 -7 15 -15 15 -8 0 -15 -7 -15 -15z"/>
<path d="M1360 1645 c0 -8 -7 -15 -15 -15 -8 0 -15 -7 -15 -15 0 -8 6 -15 14
-15 10 0 16 -14 18 -42 3 -39 6 -43 31 -46 32 -4 39 23 7 31 -14 3 -20 14 -20
31 0 19 5 26 20 26 11 0 20 7 20 15 0 8 -9 15 -20 15 -11 0 -20 7 -20 15 0 8
-4 15 -10 15 -5 0 -10 -7 -10 -15z"/>
<path d="M2770 1645 c0 -8 -4 -15 -10 -15 -5 0 -10 -7 -10 -15 0 -8 5 -15 10
-15 6 0 10 -13 10 -28 0 -36 21 -65 45 -61 26 6 31 29 6 29 -17 0 -21 6 -21
30 0 23 4 30 20 30 11 0 20 7 20 15 0 8 -9 15 -20 15 -11 0 -20 7 -20 15 0 8
-7 15 -15 15 -8 0 -15 -7 -15 -15z"/>
<path d="M523 1623 c-27 -10 -11 -21 22 -16 23 4 35 2 35 -6 0 -6 -9 -11 -21
-11 -31 0 -59 -18 -59 -39 0 -27 20 -39 68 -38 l42 0 0 43 c0 61 -36 88 -87
67z m57 -68 c0 -19 -24 -29 -46 -21 -13 5 -14 9 -4 21 16 20 50 19 50 0z"/>
<path d="M838 1619 c-10 -5 -22 -19 -28 -29 -21 -39 29 -88 76 -76 37 10 29
25 -10 19 -25 -4 -35 -1 -39 11 -5 13 2 16 44 16 48 0 50 1 44 23 -13 42 -51
58 -87 36z m60 -26 c2 -9 -8 -13 -32 -13 -28 0 -34 3 -29 16 7 18 54 16 61 -3z"/>
<path d="M950 1570 c0 -47 3 -60 15 -60 10 0 15 10 15 29 0 42 10 61 31 61 10
0 19 7 19 15 0 18 -21 20 -38 3 -9 -9 -12 -9 -12 0 0 7 -7 12 -15 12 -12 0
-15 -13 -15 -60z"/>
<path d="M1060 1569 c0 -45 3 -59 14 -59 11 0 16 14 18 48 3 39 6 47 23 47 17
0 20 -8 23 -47 2 -34 7 -48 18 -48 18 0 20 93 1 108 -7 6 -32 11 -55 10 l-42
0 0 -59z"/>
<path d="M1220 1620 c-16 -11 -9 -13 32 -10 43 2 41 -17 -3 -24 -75 -12 -64
-71 15 -71 l46 -1 0 48 c0 37 -4 50 -19 58 -24 13 -51 13 -71 0z m58 -67 c-4
-22 -48 -31 -48 -10 0 19 10 27 32 27 13 0 18 -6 16 -17z"/>
<path d="M1450 1570 c0 -33 4 -60 10 -60 6 0 10 27 10 60 0 33 -4 60 -10 60
-6 0 -10 -27 -10 -60z"/>
<path d="M1500 1623 c0 -4 10 -31 22 -60 28 -69 48 -69 74 -1 10 29 21 56 22
60 2 4 -3 8 -11 8 -9 0 -21 -16 -27 -35 -16 -50 -27 -51 -41 -5 -7 22 -18 40
-26 40 -7 0 -13 -3 -13 -7z"/>
<path d="M1662 1614 c-52 -36 -3 -116 61 -100 40 10 33 26 -9 23 -22 -1 -39 3
-41 11 -3 8 9 12 41 12 39 0 46 3 46 19 0 22 -35 51 -60 51 -9 0 -26 -7 -38
-16z m66 -21 c2 -9 -7 -13 -27 -13 -30 0 -39 9 -24 24 11 10 46 3 51 -11z"/>
<path d="M1796 1614 c-9 -8 -16 -19 -16 -23 0 -12 22 -28 44 -32 11 -2 21 -10
24 -18 4 -11 -2 -13 -26 -8 -17 4 -34 2 -37 -3 -8 -12 38 -24 63 -16 42 14 34
61 -10 68 -31 4 -36 30 -7 28 37 -3 45 0 29 10 -22 14 -46 12 -64 -6z"/>
<path d="M1984 1570 c15 -42 26 -60 38 -60 10 0 18 6 18 13 1 6 7 26 14 42
l13 30 13 -43 c17 -56 37 -51 61 13 10 28 19 53 19 58 0 12 -20 8 -25 -5 -2
-7 -10 -26 -16 -43 l-11 -30 -15 43 c-19 54 -42 53 -58 -3 -12 -41 -13 -40
-34 18 -6 15 -17 27 -24 27 -11 0 -10 -13 7 -60z"/>
<path d="M2202 1614 c-52 -36 -3 -116 61 -100 40 10 33 26 -9 23 -22 -1 -39 3
-41 11 -3 8 9 12 41 12 38 0 46 3 46 18 0 24 -31 52 -56 52 -11 0 -30 -7 -42
-16z m66 -21 c2 -9 -7 -13 -27 -13 -30 0 -39 9 -24 24 11 10 46 3 51 -11z"/>
<path d="M2415 1574 c14 -31 25 -58 25 -60 0 -8 29 -4 34 4 2 4 14 31 25 60
16 41 18 52 7 52 -8 0 -22 -19 -31 -42 l-17 -43 -19 43 c-10 23 -25 42 -33 42
-13 0 -11 -10 9 -56z"/>
<path d="M2568 1619 c-10 -5 -22 -19 -28 -29 -21 -39 29 -88 76 -76 37 10 29
25 -10 19 -25 -4 -35 -1 -39 11 -5 13 2 16 44 16 48 0 50 1 44 23 -13 42 -51
58 -87 36z m60 -26 c2 -9 -8 -13 -32 -13 -28 0 -34 3 -29 16 7 18 54 16 61 -3z"/>
<path d="M2860 1570 c0 -46 3 -60 14 -60 10 0 16 14 18 43 2 35 7 43 26 45 12
2 22 10 22 18 0 17 -22 18 -38 2 -9 -9 -12 -9 -12 0 0 7 -7 12 -15 12 -12 0
-15 -13 -15 -60z"/>
<path d="M2960 1570 c0 -47 3 -60 15 -60 12 0 15 13 15 60 0 47 -3 60 -15 60
-12 0 -15 -13 -15 -60z"/>
<path d="M3040 1610 c-49 -49 7 -120 74 -94 28 11 17 21 -20 20 -22 -1 -39 4
-41 12 -3 8 9 12 41 12 39 0 46 3 46 19 0 48 -64 67 -100 31z m74 -15 c4 -12
-3 -15 -29 -15 -33 0 -43 8 -28 23 12 13 51 7 57 -8z"/>
<path d="M3340 1525 c0 -8 7 -15 15 -15 8 0 15 7 15 15 0 8 -7 15 -15 15 -8 0
-15 -7 -15 -15z"/>
<path d="M500 1090 c0 -44 3 -50 21 -50 36 0 59 19 59 48 0 36 -17 52 -52 52
-27 0 -28 -2 -28 -50z m68 6 c4 -20 -13 -36 -40 -36 -13 0 -18 8 -18 31 0 27
3 30 27 27 18 -2 29 -10 31 -22z"/>
<path d="M733 1090 c-12 -27 -17 -50 -12 -50 5 0 9 5 9 10 0 6 14 10 30 10 17
0 30 -4 30 -10 0 -5 4 -10 9 -10 6 0 1 23 -11 50 -11 28 -24 50 -27 50 -4 0
-17 -22 -28 -50z m41 5 c4 -10 -1 -15 -14 -15 -13 0 -18 5 -14 15 4 8 10 15
14 15 4 0 10 -7 14 -15z"/>
<path d="M1095 1093 c8 -27 15 -49 15 -51 0 -2 4 -1 9 2 4 3 11 19 15 36 7 37
22 32 31 -10 4 -17 10 -30 14 -30 9 0 33 91 26 98 -2 3 -8 -9 -11 -26 -8 -40
-23 -41 -30 -2 -8 40 -18 38 -36 -7 l-15 -38 -8 38 c-4 20 -11 37 -16 37 -4 0
-2 -21 6 -47z"/>
<path d="M1295 1130 c-3 -5 -1 -10 4 -10 6 0 11 5 11 10 0 6 -2 10 -4 10 -3 0
-8 -4 -11 -10z"/>
<path d="M1551 1094 c-1 -49 0 -51 25 -50 35 1 53 28 35 50 -8 10 -22 14 -32
11 -13 -4 -19 0 -22 17 -2 13 -5 0 -6 -28z m54 -13 c3 -5 1 -13 -5 -16 -15 -9
-43 3 -35 15 8 13 32 13 40 1z"/>
<path d="M601 1070 c1 -24 3 -28 6 -12 3 13 11 26 19 29 21 8 17 22 -6 20 -16
-1 -20 -8 -19 -37z"/>
<path d="M821 1071 c1 -31 2 -33 8 -11 4 14 13 25 21 25 8 0 17 -11 21 -25 7
-21 8 -19 6 10 -2 31 -5 35 -29 36 -26 1 -28 -2 -27 -35z"/>
<path d="M901 1070 c2 -30 3 -31 6 -7 2 15 10 27 18 27 8 0 16 -12 18 -27 3
-23 4 -21 6 9 1 35 -1 38 -24 36 -22 -2 -25 -7 -24 -38z"/>
<path d="M980 1089 c-16 -29 -8 -44 23 -44 19 -1 27 4 27 16 0 48 -30 65 -50
28z m33 -26 c-7 -2 -19 -2 -25 0 -7 3 -2 5 12 5 14 0 19 -2 13 -5z"/>
<path d="M1227 1104 c-13 -13 -7 -55 9 -61 24 -9 51 23 38 45 -12 19 -36 27
-47 16z m36 -21 c-7 -2 -19 -2 -25 0 -7 3 -2 5 12 5 14 0 19 -2 13 -5z"/>
<path d="M1303 1075 c0 -22 2 -30 4 -17 2 12 2 30 0 40 -3 9 -5 -1 -4 -23z"/>
<path d="M1331 1070 c1 -31 2 -32 8 -10 4 14 13 25 21 25 8 0 17 -11 21 -25 7
-21 8 -19 6 10 -2 31 -5 35 -29 35 -26 1 -28 -2 -27 -35z"/>
<path d="M1411 1070 c1 -31 2 -32 8 -10 4 14 13 25 21 25 8 0 17 -11 21 -25 7
-21 8 -19 6 10 -2 31 -5 35 -29 35 -26 1 -28 -2 -27 -35z"/>
<path d="M1490 1095 c0 -7 8 -19 18 -24 15 -9 14 -10 -6 -11 -13 0 -20 -4 -17
-10 10 -15 45 -12 45 5 0 7 -8 19 -17 24 -17 10 -17 10 0 11 10 0 15 5 12 10
-9 15 -35 12 -35 -5z"/>
<path d="M1641 1078 c-1 -35 1 -38 24 -36 22 2 25 7 24 38 -2 30 -3 31 -6 8
-2 -16 -10 -28 -18 -28 -8 0 -16 12 -18 28 -3 22 -4 20 -6 -10z"/>
<path d="M1721 1071 c2 -30 3 -32 6 -8 2 15 9 27 14 27 5 0 9 4 9 8 0 5 -7 9
-15 9 -11 0 -15 -10 -14 -36z"/>
<path d="M1769 1094 c-17 -21 1 -49 30 -48 28 1 13 -13 -19 -18 -23 -4 -23 -5
-6 -13 29 -13 51 7 54 51 3 36 0 40 -21 42 -14 1 -31 -5 -38 -14z m46 -13 c3
-5 1 -13 -5 -16 -15 -9 -43 3 -35 15 8 13 32 13 40 1z"/>
<path d="M640 1050 c0 -5 5 -10 10 -10 6 0 10 5 10 10 0 6 -4 10 -10 10 -5 0
-10 -4 -10 -10z"/>
<path d="M500 941 c0 -5 5 -13 10 -16 6 -3 10 -2 10 4 0 5 -4 13 -10 16 -5 3
-10 2 -10 -4z"/>
<path d="M576 933 c-6 -14 -5 -15 5 -6 7 7 10 15 7 18 -3 3 -9 -2 -12 -12z"/>
<path d="M1002 903 l-2 -53 33 1 c29 2 29 2 5 6 -24 4 -27 9 -31 51 l-3 47 -2
-52z"/>
<path d="M1490 931 c0 -15 -8 -21 -32 -24 l-33 -4 32 -1 c26 -2 32 -7 36 -29
2 -16 5 -4 6 25 0 28 -1 52 -4 52 -3 0 -5 -9 -5 -19z"/>
<path d="M1893 900 c0 -30 2 -43 4 -27 2 15 2 39 0 55 -2 15 -4 2 -4 -28z"/>
<path d="M1777 924 c-9 -9 9 -68 21 -70 7 -1 8 0 2 3 -14 7 -13 50 2 55 8 3 6
6 -4 10 -9 4 -18 5 -21 2z"/>
<path d="M638 913 c7 -3 16 -2 19 1 4 3 -2 6 -13 5 -11 0 -14 -3 -6 -6z"/>
<path d="M723 913 c9 -2 23 -2 30 0 6 3 -1 5 -18 5 -16 0 -22 -2 -12 -5z"/>
<path d="M800 916 c0 -2 7 -7 16 -10 8 -3 12 -2 9 4 -6 10 -25 14 -25 6z"/>
<path d="M896 911 c-3 -5 2 -7 13 -4 16 4 20 -1 24 -29 l5 -33 -2 35 c-1 34
-26 54 -40 31z"/>
<path d="M1148 913 c7 -3 16 -2 19 1 4 3 -2 6 -13 5 -11 0 -14 -3 -6 -6z"/>
<path d="M1210 916 c0 -2 7 -7 16 -10 8 -3 12 -2 9 4 -6 10 -25 14 -25 6z"/>
<path d="M1270 905 c-24 -29 18 -72 43 -45 9 10 9 11 -1 6 -7 -4 -21 -4 -30 0
-14 6 -11 9 13 14 l30 8 -28 1 c-18 1 -26 5 -21 12 3 6 15 9 25 6 11 -3 17 -1
13 4 -8 14 -30 11 -44 -6z"/>
<path d="M1540 916 c0 -2 9 -6 20 -9 11 -3 18 -1 14 4 -5 9 -34 13 -34 5z"/>
<path d="M1610 916 c0 -2 7 -7 16 -10 8 -3 12 -2 9 4 -6 10 -25 14 -25 6z"/>
<path d="M1680 916 c0 -2 9 -6 20 -9 11 -3 18 -1 14 4 -5 9 -34 13 -34 5z"/>
<path d="M1826 911 c-3 -5 3 -7 14 -4 11 3 20 1 20 -5 0 -5 -9 -12 -21 -15
-22 -6 -22 -29 -1 -33 7 -1 8 0 2 3 -5 2 -10 9 -10 14 0 14 28 11 34 -3 3 -7
4 0 3 17 -2 30 -29 47 -41 26z"/>
<path d="M1600 896 c0 -3 9 -10 20 -16 11 -6 20 -8 20 -6 0 3 -9 10 -20 16
-11 6 -20 8 -20 6z"/>
<path d="M628 883 c6 -2 18 -2 25 0 6 3 1 5 -13 5 -14 0 -19 -2 -12 -5z"/>
<path d="M617 858 c2 -5 10 -8 18 -8 8 0 16 3 18 8 3 4 -5 7 -18 7 -13 0 -21
-3 -18 -7z"/>
<path d="M747 859 c7 -7 15 -10 18 -7 3 3 -2 9 -12 12 -14 6 -15 5 -6 -5z"/>
<path d="M1077 858 c2 -5 10 -8 18 -8 8 0 16 3 18 8 3 4 -5 7 -18 7 -13 0 -21
-3 -18 -7z"/>
<path d="M1157 859 c7 -7 15 -10 18 -7 3 3 -2 9 -12 12 -14 6 -15 5 -6 -5z"/>
<path d="M1555 860 c-16 -7 -17 -9 -3 -9 9 -1 20 4 23 9 7 11 7 11 -20 0z"/>
<path d="M1695 860 c-16 -7 -17 -9 -3 -9 9 -1 20 4 23 9 7 11 7 11 -20 0z"/>
<path d="M1608 853 c6 -2 18 -2 25 0 6 3 1 5 -13 5 -14 0 -19 -2 -12 -5z"/>
</g>
</svg>
