<?xml version="1.0" encoding="UTF-8"?>
<svg width="90px" height="90px" viewBox="0 0 90 90" version="1.1" xmlns="http://www.w3.org/2000/svg" xmlns:xlink="http://www.w3.org/1999/xlink">
    <!-- Generator: Sketch 62 (91390) - https://sketch.com -->
    <title>WhatsApp</title>
    <desc>Created with Sketch.</desc>
    <defs>
        <linearGradient x1="50%" y1="0%" x2="50%" y2="100%" id="linearGradient-1">
            <stop stop-color="#FFFFFF" stop-opacity="0.5" offset="0%"></stop>
            <stop stop-color="#2A529F" stop-opacity="0.34298514" offset="100%"></stop>
        </linearGradient>
        <rect id="path-2" x="0" y="0" width="90" height="90" rx="16"></rect>
    </defs>
    <g id="Page-" stroke="none" stroke-width="1" fill="none" fill-rule="evenodd">
        <g id="Inbox_Enterprise_Tuesday-03/03" transform="translate(-285.000000, -1362.000000)">
            <g id="WhatsApp" transform="translate(285.000000, 1362.000000)">
                <g id="Channel">
                    <g id="Rectangle-Copy">
                        <use fill="#24D366" xlink:href="#path-2"></use>
                        <use fill="url(#linearGradient-1)" style="mix-blend-mode: multiply;" xlink:href="#path-2"></use>
                    </g>
                    <g id="Group-30" transform="translate(18.000000, 15.000000)" fill="#FFFFFF" fill-rule="nonzero">
                        <g id="Group-21" transform="translate(0.733567, 0.340585)">
                            <g id="Group-3">
                                <path d="M39.7945024,32.7078171 C39.1154696,32.3697301 35.7771196,30.7349293 35.1546403,30.5092785 C34.5321609,30.2837574 34.0794724,30.1710618 33.6267839,30.8473656 C33.1740953,31.5239288 31.8728438,33.0461636 31.4765784,33.4973354 C31.0805737,33.9481182 30.6844386,34.0047902 30.0055361,33.6664438 C29.326373,33.3280973 27.1383784,32.6145741 24.5447363,30.3120286 C22.5260112,28.5201801 21.1632545,26.3072465 20.7671195,25.6305536 C20.3711147,24.9541201 20.7250301,24.5884103 21.0650026,24.2513607 C21.3704436,23.9485477 21.7440354,23.4619721 22.0834867,23.0674723 C22.4230682,22.6728429 22.5361752,22.3907794 22.7625195,21.9401264 C22.9888637,21.4889545 22.8757568,21.0943251 22.705966,20.7561083 C22.5361752,20.4178916 21.1781096,17.0913586 20.612314,15.7381025 C20.061113,14.4206393 19.5013116,14.5990849 19.0844576,14.5780761 C18.6888438,14.5584937 18.235634,14.5543438 17.7830758,14.5543438 C17.3303873,14.5543438 16.5946707,14.7234522 15.9723216,15.3998857 C15.3498423,16.0765786 13.5956416,17.7115091 13.5956416,21.0377827 C13.5956416,24.364186 16.0288751,27.5775046 16.3684567,28.0285468 C16.7079079,28.4797186 21.1566088,35.3055241 27.9684377,38.2328888 C29.5885519,38.929164 30.8534476,39.3450617 31.8394851,39.6563041 C33.4662449,40.1708915 34.9465391,40.0982683 36.1164405,39.9242319 C37.4210801,39.7302242 40.1339536,38.2894311 40.6998795,36.7109133 C41.265675,35.1321362 41.265675,33.7791395 41.0958842,33.4973354 C40.9262237,33.2154016 40.4735352,33.0461636 39.7945024,32.7078171 M27.4045968,49.5440866 L27.3954753,49.5440866 C23.3423882,49.5425304 19.3669645,48.458888 15.8988282,46.4106536 L15.0741115,45.9234295 L6.5250219,48.155297 L8.80683798,39.8599085 L8.26984043,39.0094386 C6.00874325,35.4302805 4.81460457,31.2937391 4.81629676,27.0460582 C4.82125025,14.6516071 14.9542285,4.56787152 27.413588,4.56787152 C33.4468291,4.56994646 39.118206,6.91139723 43.3829126,11.1605046 C47.6474888,15.4094824 49.9947193,21.0576244 49.9925057,27.0640843 C49.9874221,39.4595729 39.8544439,49.5440866 27.4045968,49.5440866 M46.6286139,7.93175362 C41.4977528,2.81946724 34.6743265,0.00285305548 27.4043362,0 C12.4250886,0 0.233771803,12.1320997 0.227777655,27.0442426 C0.225823041,31.8111796 1.47716676,36.4639944 3.85541045,40.5657804 L0,54.5808967 L14.4065457,50.8197915 C18.3759753,52.9744968 22.8451345,54.1102722 27.3935206,54.1118284 L27.4045968,54.1118284 L27.4047271,54.1118284 C42.382411,54.1118284 54.5749006,41.9784319 54.5808967,27.0658999 C54.5836312,19.83924 51.7594749,13.0439103 46.6286139,7.93175362" id="Fill-1"></path>
                            </g>
                        </g>
                    </g>
                </g>
            </g>
        </g>
    </g>
</svg>