<svg id="svg" version="1.1" xmlns="http://www.w3.org/2000/svg" xmlns:xlink="http://www.w3.org/1999/xlink" width="400" height="400" viewBox="0, 0, 400,400"><g id="svgg"><path id="path0" d="M341.658 119.914 C 340.749 120.206,339.678 120.930,333.958 125.125 C 314.801 139.174,289.460 157.689,282.281 162.883 C 273.711 169.084,273.299 169.448,272.816 171.224 C 272.604 172.004,272.546 227.732,272.756 228.704 C 273.063 230.122,273.945 231.244,275.833 232.621 C 276.337 232.989,281.438 236.688,287.167 240.841 C 292.896 244.994,298.258 248.892,299.083 249.504 C 299.908 250.116,302.796 252.225,305.500 254.191 C 308.204 256.157,313.031 259.674,316.226 262.008 C 319.422 264.341,323.472 267.292,325.226 268.565 C 330.780 272.594,336.359 276.687,338.095 278.006 C 342.487 281.342,346.379 280.881,347.561 276.885 C 348.004 275.387,347.909 124.213,347.464 122.915 C 346.612 120.429,344.098 119.129,341.658 119.914 M60.357 120.017 C 54.472 120.544,52.587 122.700,52.139 129.417 C 51.838 133.943,52.087 235.150,52.409 238.667 C 54.454 261.067,68.827 276.509,90.833 279.950 C 93.882 280.427,254.540 280.416,256.583 279.939 C 259.700 279.211,261.194 277.804,262.124 274.722 C 262.483 273.530,262.682 164.659,262.333 160.333 C 260.802 141.360,247.946 125.982,229.725 121.329 C 227.886 120.859,226.077 120.521,223.333 120.134 C 221.649 119.897,62.971 119.782,60.357 120.017 " stroke="none" fill="#fbfbfc" fill-rule="evenodd"></path><path id="path1" d="M62.250 0.105 C 62.067 0.138,60.792 0.278,59.417 0.417 C 58.042 0.556,56.542 0.737,56.083 0.820 C 55.625 0.902,54.725 1.058,54.083 1.168 C 53.442 1.277,52.504 1.478,52.000 1.615 C 51.496 1.752,50.633 1.967,50.083 2.091 C 48.088 2.544,43.434 4.066,41.886 4.772 C 41.410 4.989,40.978 5.167,40.926 5.167 C 40.488 5.167,32.987 8.926,32.861 9.208 C 32.831 9.277,32.728 9.333,32.632 9.333 C 32.537 9.333,32.009 9.633,31.460 10.000 C 30.911 10.367,30.430 10.667,30.391 10.667 C 30.351 10.667,30.229 10.741,30.118 10.832 C 30.007 10.923,29.079 11.589,28.055 12.312 C 27.031 13.035,25.786 13.954,25.288 14.355 C 24.790 14.756,24.193 15.233,23.960 15.417 C 22.328 16.705,18.207 20.715,16.573 22.606 C 16.028 23.235,15.546 23.787,15.500 23.833 C 15.316 24.017,14.034 25.643,13.331 26.583 C 12.920 27.133,12.545 27.621,12.496 27.667 C 12.331 27.824,10.621 30.410,9.719 31.869 C 6.386 37.256,3.492 44.078,2.060 49.917 C 1.573 51.903,1.490 52.269,1.243 53.500 C 0.825 55.578,0.680 56.483,0.384 58.833 C 0.026 61.682,-0.186 334.246,0.167 338.250 C 0.517 342.218,1.035 345.659,1.647 348.083 C 1.800 348.690,1.924 349.186,2.499 351.500 C 2.751 352.516,3.800 355.681,4.003 356.039 C 4.093 356.199,4.167 356.412,4.167 356.514 C 4.167 356.616,4.287 356.973,4.434 357.308 C 4.581 357.643,4.759 358.067,4.831 358.250 C 5.666 360.394,7.371 363.948,8.508 365.917 C 9.417 367.490,11.464 370.803,11.690 371.066 C 11.777 371.167,12.273 371.850,12.791 372.583 C 13.310 373.317,13.777 373.954,13.830 374.000 C 13.882 374.046,14.185 374.421,14.502 374.833 C 14.819 375.246,15.155 375.669,15.248 375.773 C 15.341 375.877,15.826 376.439,16.326 377.023 C 17.499 378.391,21.609 382.501,22.977 383.674 C 23.561 384.174,24.123 384.659,24.227 384.752 C 24.331 384.845,24.754 385.182,25.167 385.500 C 25.579 385.818,26.016 386.174,26.138 386.290 C 26.260 386.407,26.509 386.583,26.693 386.681 C 26.876 386.779,27.152 386.966,27.305 387.097 C 28.095 387.772,31.965 390.307,33.416 391.099 C 33.600 391.199,34.200 391.529,34.750 391.832 C 36.035 392.540,38.042 393.551,39.000 393.974 C 39.412 394.156,40.102 394.461,40.533 394.652 C 40.963 394.844,41.357 395.000,41.409 395.000 C 41.461 395.000,41.822 395.140,42.210 395.311 C 43.239 395.763,45.172 396.466,45.750 396.598 C 46.025 396.661,46.325 396.764,46.417 396.827 C 46.508 396.890,47.071 397.076,47.667 397.240 C 48.262 397.403,48.938 397.599,49.167 397.674 C 49.396 397.749,50.108 397.930,50.750 398.076 C 51.392 398.222,52.217 398.415,52.583 398.504 C 52.950 398.593,53.737 398.745,54.333 398.842 C 54.929 398.938,55.829 399.087,56.333 399.172 C 57.227 399.322,58.726 399.495,62.048 399.834 C 63.117 399.943,110.636 399.999,200.131 399.998 C 349.138 399.996,339.000 400.053,343.917 399.182 C 347.207 398.599,348.733 398.285,350.083 397.913 C 350.633 397.762,351.381 397.565,351.745 397.476 C 352.355 397.328,353.721 396.879,356.250 395.997 C 356.800 395.806,357.568 395.503,357.957 395.324 C 358.345 395.146,358.705 395.000,358.757 395.000 C 358.845 395.000,359.573 394.690,361.000 394.046 C 361.904 393.638,364.334 392.421,365.167 391.959 C 365.579 391.730,366.179 391.402,366.500 391.230 C 366.821 391.058,367.121 390.878,367.167 390.832 C 367.212 390.785,367.531 390.599,367.875 390.419 C 368.219 390.238,368.500 390.033,368.500 389.962 C 368.500 389.891,368.570 389.833,368.656 389.833 C 368.832 389.833,372.222 387.575,373.250 386.773 C 373.617 386.487,373.992 386.195,374.083 386.125 C 377.425 383.565,380.940 380.223,383.750 376.934 C 384.208 376.398,384.659 375.874,384.752 375.771 C 384.845 375.668,385.182 375.246,385.501 374.833 C 385.820 374.421,386.212 373.938,386.374 373.760 C 386.535 373.583,386.667 373.382,386.667 373.314 C 386.667 373.246,386.763 373.091,386.881 372.970 C 386.999 372.849,387.355 372.375,387.673 371.917 C 387.990 371.458,388.292 371.046,388.343 371.000 C 388.552 370.812,390.999 366.823,391.666 365.583 C 393.158 362.807,393.888 361.274,395.176 358.208 C 396.689 354.608,398.179 349.380,398.918 345.083 C 399.060 344.258,399.246 343.208,399.332 342.750 C 399.920 339.623,399.917 340.383,399.917 199.750 C 399.917 59.324,399.919 59.971,399.335 56.917 C 399.248 56.458,399.057 55.408,398.912 54.583 C 398.156 50.297,396.561 44.696,395.259 41.759 C 395.053 41.296,394.787 40.654,394.666 40.333 C 394.545 40.012,393.848 38.550,393.117 37.083 C 392.385 35.617,391.703 34.249,391.602 34.043 C 391.500 33.837,391.360 33.669,391.292 33.668 C 391.223 33.667,391.167 33.578,391.167 33.470 C 391.167 33.256,388.899 29.553,388.548 29.195 C 388.429 29.074,388.249 28.820,388.149 28.633 C 388.048 28.445,387.705 27.945,387.385 27.521 C 387.066 27.097,386.642 26.531,386.444 26.263 C 386.114 25.818,385.530 25.090,384.627 24.000 C 382.247 21.126,378.943 17.825,375.936 15.317 C 375.672 15.097,375.372 14.839,375.269 14.744 C 375.167 14.649,374.483 14.127,373.750 13.582 C 373.017 13.038,372.379 12.546,372.333 12.488 C 372.287 12.430,371.912 12.173,371.500 11.917 C 371.087 11.660,370.712 11.400,370.667 11.340 C 370.541 11.172,366.866 8.923,365.475 8.160 C 360.707 5.549,354.857 3.231,350.083 2.060 C 348.097 1.573,347.731 1.490,346.500 1.243 C 344.422 0.825,343.517 0.680,341.167 0.384 C 339.106 0.125,63.673 -0.151,62.250 0.105 M345.148 120.077 C 347.756 121.411,347.725 121.250,347.864 134.000 C 348.042 150.460,347.997 275.451,347.812 276.333 C 346.892 280.717,342.685 281.624,338.417 278.358 C 337.104 277.353,333.362 274.610,323.000 267.059 C 320.112 264.954,314.525 260.878,310.583 258.000 C 306.642 255.123,301.354 251.272,298.833 249.444 C 296.313 247.616,293.725 245.728,293.083 245.249 C 292.005 244.445,287.605 241.255,278.417 234.616 C 274.173 231.549,273.709 231.137,273.062 229.861 L 272.583 228.917 272.583 200.083 L 272.583 171.250 272.984 170.443 C 273.590 169.221,274.597 168.318,278.420 165.566 C 282.549 162.594,299.321 150.368,311.333 141.574 C 313.946 139.662,318.190 136.556,320.766 134.673 C 329.843 128.036,334.943 124.303,337.417 122.484 C 341.605 119.403,342.988 118.973,345.148 120.077 M224.784 120.212 C 232.403 121.583,237.478 123.473,242.750 126.903 C 253.665 134.004,260.220 144.579,262.285 158.417 C 262.743 161.485,262.749 272.604,262.292 274.385 C 261.419 277.780,259.657 279.442,256.250 280.083 C 253.913 280.522,94.373 280.455,90.917 280.014 C 74.037 277.857,60.103 266.528,54.615 250.500 C 53.253 246.522,52.545 242.496,52.169 236.586 C 51.930 232.814,51.937 129.155,52.177 127.387 C 52.815 122.688,54.936 120.538,59.455 120.007 C 61.975 119.712,223.111 119.911,224.784 120.212 " stroke="none" fill="#4c8cfc" fill-rule="evenodd"></path><path id="path2" d="M61.042 119.948 C 61.202 119.990,61.465 119.990,61.625 119.948 C 61.785 119.906,61.654 119.872,61.333 119.872 C 61.012 119.872,60.881 119.906,61.042 119.948 M220.042 119.948 C 220.202 119.990,220.465 119.990,220.625 119.948 C 220.785 119.906,220.654 119.872,220.333 119.872 C 220.012 119.872,219.881 119.906,220.042 119.948 M52.042 129.917 C 52.044 130.283,52.078 130.414,52.118 130.206 C 52.158 129.999,52.156 129.699,52.115 129.540 C 52.073 129.380,52.040 129.550,52.042 129.917 M272.581 200.500 C 272.581 212.463,272.601 217.356,272.625 211.375 C 272.649 205.394,272.649 195.606,272.625 189.625 C 272.601 183.644,272.581 188.537,272.581 200.500 M52.079 221.333 C 52.079 227.521,52.100 230.052,52.125 226.958 C 52.150 223.865,52.150 218.802,52.125 215.708 C 52.100 212.615,52.079 215.146,52.079 221.333 M347.887 274.167 C 347.887 274.762,347.917 275.006,347.954 274.708 C 347.991 274.410,347.991 273.923,347.954 273.625 C 347.917 273.327,347.887 273.571,347.887 274.167 M94.044 280.286 C 94.297 280.325,94.672 280.324,94.877 280.284 C 95.082 280.244,94.875 280.213,94.417 280.214 C 93.958 280.216,93.791 280.248,94.044 280.286 M253.875 280.282 C 254.035 280.323,254.298 280.323,254.458 280.282 C 254.619 280.240,254.487 280.205,254.167 280.205 C 253.846 280.205,253.715 280.240,253.875 280.282 " stroke="none" fill="#a4c4fc" fill-rule="evenodd"></path><path id="path3" d="M347.916 201.833 C 347.916 235.246,347.935 248.915,347.958 232.208 C 347.982 215.502,347.982 188.165,347.958 171.458 C 347.935 154.752,347.916 168.421,347.916 201.833 M262.582 217.250 C 262.582 247.133,262.602 259.334,262.625 244.361 C 262.648 229.389,262.648 204.939,262.625 190.028 C 262.602 175.117,262.582 187.367,262.582 217.250 M52.045 234.333 C 52.045 234.746,52.078 234.915,52.118 234.708 C 52.157 234.502,52.157 234.165,52.118 233.958 C 52.078 233.752,52.045 233.921,52.045 234.333 M347.879 272.500 C 347.879 272.912,347.911 273.081,347.951 272.875 C 347.991 272.669,347.991 272.331,347.951 272.125 C 347.911 271.919,347.879 272.087,347.879 272.500 " stroke="none" fill="#74acfc" fill-rule="evenodd"></path><path id="path4" d="M52.042 233.083 C 52.044 233.450,52.078 233.580,52.118 233.373 C 52.158 233.166,52.156 232.866,52.115 232.706 C 52.073 232.547,52.040 232.717,52.042 233.083 " stroke="none" fill="#8cb5fc" fill-rule="evenodd"></path></g></svg>