<?xml version="1.0" ?><svg id="Layer_1" style="enable-background:new 0 0 512 512;" version="1.1" viewBox="0 0 512 512" xml:space="preserve" xmlns="http://www.w3.org/2000/svg" xmlns:xlink="http://www.w3.org/1999/xlink"><style type="text/css">
	.st0{fill:#1F96D2;}
	.st1{fill-rule:evenodd;clip-rule:evenodd;fill:#FFFFFF;}
</style><g><path class="st0" d="M512,397.1c0,63.5-51.5,114.9-114.9,114.9H114.9C51.5,512,0,460.5,0,397.1V114.9C0,51.5,51.5,0,114.9,0h282.2   C460.5,0,512,51.5,512,114.9V397.1z"/><path class="st1" d="M373.6,277c1-6.3,1.6-12.8,1.6-19.5c0-66.5-53.9-120.5-120.5-120.5c-6.6,0-13.1,0.5-19.4,1.6   c-11-7.4-24.3-11.6-38.6-11.6c-38.5,0-69.7,31.2-69.7,69.7c0,13,3.6,25.2,9.8,35.6c-1.7,8.1-2.7,16.6-2.7,25.2   c0,66.5,53.9,120.5,120.5,120.5c8.7,0,17.2-0.9,25.3-2.7c10.4,6.1,22.4,9.6,35.3,9.6c38.5,0,69.7-31.2,69.7-69.7   C385,301.2,380.8,288,373.6,277z M291.3,326.5c-16.7,7.6-41.6,7.8-59.1,3.6c-24.6-5.9-35.6-19.9-37.6-31.2   c-3.1-17.3,16.7-23.5,27-11.4c2.4,2.8,4.5,5.7,6.9,8.5c13.6,16.1,42.8,14.5,52.2,1.6c3.8-5.2,3.8-12.2-0.1-17.2   c-4.3-5.5-9.2-5.5-50.8-16.1c-40.4-10.3-39.7-46.1-28-63.6c9.5-14.2,28-19.9,45.1-21.2c29.5-2.3,61.9,11.7,64.9,31   c1.2,7.8-2.9,14-10.7,15.8c-11.2,2.6-15-4.5-21.1-11.1c-12.7-13.6-37.5-12.3-46.5-4.9c-6.7,5.6-7.8,15.3-1.3,20.5   c10.3,8.3,44.4,10.6,60.9,17.9c17.2,7.6,25.2,21,25,37.1C318,305.1,308.7,318.6,291.3,326.5z"/></g></svg>