<?xml version="1.0" ?><!DOCTYPE svg  PUBLIC '-//W3C//DTD SVG 1.1//EN'  'http://www.w3.org/Graphics/SVG/1.1/DTD/svg11.dtd'><svg height="1.04167in" style="shape-rendering:geometricPrecision; text-rendering:geometricPrecision; image-rendering:optimizeQuality; fill-rule:evenodd; clip-rule:evenodd" version="1.1" viewBox="0 0 187 187" width="1.04167in" xml:space="preserve" xmlns="http://www.w3.org/2000/svg" xmlns:xlink="http://www.w3.org/1999/xlink"><defs><style type="text/css">
   <![CDATA[
    .fil0 {fill:#2DC100}
    .fil1 {fill:white}
   ]]>
  </style></defs><g id="Layer_x0020_1"><g id="_320496256"><rect class="fil0" height="187" rx="18" ry="18" width="187"/><g><path class="fil1" d="M72 32c27,0 48,18 50,41 -25,0 -46,18 -46,41 0,2 0,3 0,5 -1,0 -2,0 -4,0 -3,0 -7,0 -10,-1l-1 0c-3,0 -6,1 -6,1l-14 9c0,0 3,-13 3,-14 1,-2 -2,-4 -2,-4l0 0c-12,-8 -19,-20 -19,-34 0,-25 22,-44 49,-44zm-17 28c3,0 6,3 6,7 0,3 -3,6 -6,6 -4,0 -6,-3 -6,-6 0,-4 2,-7 6,-7zm37 0c4,0 7,3 7,7 0,3 -3,6 -7,6 -3,0 -6,-3 -6,-6 0,-4 3,-7 6,-7z"/><path class="fil1" d="M122 76c24,0 43,17 43,38 0,11 -6,21 -14,28l0 0c-2,1 -2,2 -2,3 -1,1 2,10 2,10 0,0 -6,-3 -9,-5 -3,-1 -7,0 -7,0l0 0c-4,1 -8,2 -13,2 -23,0 -42,-17 -42,-38 0,-21 19,-38 42,-38zm12 22c3,0 5,2 5,5 0,3 -2,5 -5,5 -3,0 -5,-2 -5,-5 0,-3 2,-5 5,-5zm-31 0c3,0 5,2 5,5 0,3 -2,5 -5,5 -3,0 -5,-2 -5,-5 0,-3 2,-5 5,-5z"/></g></g></g></svg>