<?xml version="1.0" ?><svg style="enable-background:new 0 0 64 64;" version="1.1" viewBox="0 0 64 64" xml:space="preserve" xmlns="http://www.w3.org/2000/svg" xmlns:xlink="http://www.w3.org/1999/xlink"><style type="text/css">
	.st0{fill:#4267B2;}
	.st1{fill:url(#SVGID_1_);}
	.st2{fill:#FFFFFF;}
	.st3{fill:#C2191E;}
	.st4{fill:#1DA1F3;}
	.st5{fill:#FEFE00;}
	.st6{fill:#25D366;stroke:#FFFFFF;stroke-width:5;stroke-miterlimit:10;}
	.st7{fill:#CB2027;}
	.st8{fill:#0077B5;}
	.st9{fill:url(#SVGID_2_);}
	.st10{fill:url(#SVGID_3_);}
	.st11{fill:#FF004F;}
	.st12{fill:#00F7EF;}
	.st13{fill:#5181B8;}
	.st14{fill:#395976;}
	.st15{fill:#F58220;}
	.st16{fill:#E6162D;}
	.st17{fill:#FF9933;}
</style><g id="guidlines"/><g id="FB"/><g id="ig"/><g id="yt"/><g id="twitter"/><g id="snapchat"><path class="st5" d="M58,62H6c-2.2,0-4-1.8-4-4V6c0-2.2,1.8-4,4-4h52c2.2,0,4,1.8,4,4v52C62,60.2,60.2,62,58,62z"/><g><path class="st2" d="M52,42.1c0,0-0.4,1.6-2.5,2c-2,0.3-3.2,0.5-3.2,0.5l-0.5,2.7c0,0-1.5-0.4-3.2-0.4c-0.7,0-1.5,0.1-2.2,0.3    c-1.9,0.5-3.8,2.6-6.4,3.5c-0.6,0.2-1.3,0.3-2,0.4h0c-0.7,0-1.4-0.2-2-0.4c-2.6-0.9-4.5-3-6.4-3.5c-0.7-0.2-1.5-0.3-2.2-0.3    c-1.7,0-3.2,0.4-3.2,0.4l-0.5-2.7c0,0-1.1-0.1-3.2-0.5c-2-0.3-2.5-2-2.5-2s0.5-0.1,2.6-0.7s4.9-3.8,6.1-5.7c1.2-2,0.7-3-0.3-3.7    s-4.2-0.9-4.1-2.3c0.1-1.4,1.8-1.3,1.8-1.3c1.9,1,3.3,0.4,3.3,0.4v-5c0-5.9,4.8-10.7,10.6-10.8h0c5.9,0.1,10.6,4.9,10.6,10.8v5    c0,0,1.3,0.6,3.3-0.4c0,0,1.7-0.1,1.8,1.3c0.1,1.4-3.1,1.5-4.1,2.3c-1,0.7-1.4,1.8-0.3,3.7c1.2,2,4,5.1,6.1,5.7S52,42.1,52,42.1z"/><path d="M32,51.4c-0.8,0-1.5-0.2-2.2-0.4c-1.4-0.5-2.7-1.3-3.7-2c-0.9-0.6-1.8-1.2-2.7-1.5c-0.6-0.2-1.3-0.3-2-0.2    c-1.6,0-3.1,0.4-3.1,0.4c-0.1,0-0.3,0-0.4-0.1c-0.1-0.1-0.2-0.2-0.2-0.3L17.2,45c-0.5-0.1-1.4-0.2-2.8-0.4    c-2.3-0.4-2.8-2.3-2.9-2.3c0-0.1,0-0.3,0.1-0.4c0.1-0.1,0.2-0.2,0.3-0.2c0,0,0.6-0.1,2.5-0.7c1.9-0.6,4.6-3.6,5.8-5.5    c1.1-1.8,0.6-2.6-0.1-3.1c-0.3-0.2-0.9-0.4-1.5-0.6c-1.3-0.4-2.9-0.8-2.8-2.2c0.2-1.5,1.6-1.8,2.4-1.7c0.1,0,0.1,0,0.2,0.1    c1.2,0.6,2.1,0.6,2.5,0.5v-4.6c0-6.1,5-11.2,11.1-11.3c6.1,0.1,11.1,5.1,11.1,11.3v4.6c0.4,0.1,1.4,0.2,2.5-0.5    c0.1,0,0.1-0.1,0.2-0.1c0.8-0.1,2.2,0.2,2.4,1.7c0.1,1.3-1.5,1.8-2.8,2.2c-0.6,0.2-1.2,0.3-1.5,0.6c-0.7,0.5-1.2,1.2-0.1,3.1    c1.1,1.9,3.9,5,5.8,5.5c1.9,0.6,2.5,0.7,2.5,0.7c0.1,0,0.3,0.1,0.3,0.2s0.1,0.3,0.1,0.4c0,0.1-0.5,2-2.9,2.3    c-1.4,0.2-2.3,0.4-2.8,0.4l-0.5,2.3c0,0.1-0.1,0.3-0.2,0.3c-0.1,0.1-0.3,0.1-0.4,0.1c0,0-1.5-0.4-3.1-0.4c-0.8,0-1.5,0.1-2,0.2    c-0.8,0.2-1.7,0.8-2.7,1.5c-1.1,0.7-2.3,1.6-3.7,2C33.4,51.3,32.7,51.4,32,51.4z M21.5,46.3c0.8,0,1.6,0.1,2.2,0.3    c1,0.3,1.9,0.9,3,1.6c1.1,0.7,2.2,1.5,3.5,1.9c0.6,0.2,1.2,0.3,1.9,0.3c0.6,0,1.2-0.1,1.8-0.3c1.3-0.4,2.4-1.2,3.5-1.9    c1-0.7,2-1.3,3-1.6c0.7-0.2,1.4-0.3,2.3-0.3c1.2,0,2.2,0.2,2.8,0.3l0.4-2.2c0-0.2,0.2-0.4,0.4-0.4c0,0,1.1-0.1,3.1-0.5    c1-0.2,1.6-0.7,1.8-1.1c-0.4-0.1-1-0.3-2-0.6c-2.2-0.6-5.1-3.9-6.3-6c-1.1-1.9-1-3.4,0.4-4.4c0.4-0.3,1.1-0.5,1.8-0.7    c0.9-0.3,2.1-0.6,2.1-1.1c-0.1-0.8-0.9-0.8-1.2-0.8c-2.1,1.1-3.6,0.4-3.6,0.4c-0.2-0.1-0.3-0.3-0.3-0.5v-5    c0-5.6-4.5-10.2-10.1-10.3c-5.6,0.1-10.1,4.7-10.1,10.3v5c0,0.2-0.1,0.4-0.3,0.5c-0.1,0-1.6,0.7-3.6-0.4c-0.3,0-1.1,0.1-1.2,0.8    c-0.1,0.5,1.2,0.8,2.1,1.1c0.7,0.2,1.4,0.4,1.8,0.7c1.4,1,1.5,2.5,0.4,4.4c-1.2,2-4.2,5.3-6.3,6c-1,0.3-1.6,0.5-2,0.6    c0.3,0.4,0.8,1,1.8,1.1c2,0.3,3.1,0.5,3.1,0.5c0.2,0,0.4,0.2,0.4,0.4l0.4,2.2c0.6-0.1,1.7-0.3,2.8-0.3    C21.4,46.3,21.5,46.3,21.5,46.3z"/></g></g><g id="WA"/><g id="Pinterrest"/><g id="Layer_9"/><g id="Layer_10"/><g id="Layer_11"/><g id="Layer_12"/><g id="Layer_13"/><g id="Layer_14"/><g id="Layer_15"/><g id="Layer_16"/><g id="Layer_17"/></svg>